:SAMPLES-PER-SECOND 30
:FRAME-RANGE 1-2045
:FULLY-SPECIFIED
:DEGREES
767
root  -9.93459 36.2771 19.7032 17.8656 1.05384 1.08383
RightUpLeg  -31.209 -7.19587 -16.2895
RightLeg  37.1731 1.139 0.668891
RightFoot  -21.2743 1.60298 19.9339
RightToes  -5.28216e-011 1.2921e-014 -6.02303e-014
Spine  22.4237 1.48175 7.33038
Spine1  -1.91874 5.01827 -10.1307
HEad  -15.3749 1.76674 -9.77732
LeftShoulder1  0.492194 -13.8017 6.09834
LeftArm  -21.9307 -59.8526 -27.5852
LeftForeArm  -23.5764 -23.1876 -6.08331
LeftHand  -0.0530835 6.70655 -1.30666
RightShoulder  0.449008 11.1097 -5.96572
RightArm  -61.0042 76.1466 10.7423
RightForeArm  18.6444 -4.21904 -9.34986
RightHand  -0.0455618 -6.00008 2.02407
LeftUpLeg  -52.8275 5.21566 8.53238
LeftLeg  35.2998 6.21034 5.07968
LeftFoot  -5.82262 0.383043 -7.21784
LeftToes  9.43379e-011 5.24309e-011 -4.66411e-011
768
root  -9.55746 35.8069 20.0167 17.9348 0.656275 0.619324
RightUpLeg  -32.0479 -7.52375 -16.687
RightLeg  39.7306 1.96662 1.48191
RightFoot  -22.8655 1.94164 20.5869
RightToes  -5.28216e-011 1.2921e-014 -6.02303e-014
Spine  23.2061 1.53709 7.2888
Spine1  -2.08692 5.293 -10.9734
HEad  -18.1272 2.96132 -11.0515
LeftShoulder1  0.491211 -14.124 6.16609
LeftArm  -28.1508 -59.856 -28.9338
LeftForeArm  -16.3282 -20.7752 -5.50598
LeftHand  0.00694385 7.41838 2.51178
RightShoulder  0.341201 11.476 -6.8885
RightArm  -63.3157 78.9549 11.8022
RightForeArm  17.0525 -2.84111 -10.3169
RightHand  -0.048835 -6.90398 0.776947
LeftUpLeg  -54.2936 4.75161 10.7883
LeftLeg  36.5389 9.9455 8.19782
LeftFoot  -4.18221 0.253757 -3.6548
LeftToes  9.43379e-011 5.24309e-011 -4.66411e-011
769
root  -9.02774 35.2978 20.4227 17.3328 -0.415961 -0.052887
RightUpLeg  -32.1844 -7.55965 -17.3728
RightLeg  42.1339 3.22719 2.84208
RightFoot  -24.3763 2.25177 20.9546
RightToes  -5.28216e-011 1.2921e-014 -6.02303e-014
Spine  24.3383 2.06498 6.99018
Spine1  -2.38214 5.93713 -11.639
HEad  -19.136 5.08796 -12.008
LeftShoulder1  0.504973 -13.4251 5.93632
LeftArm  -32.6139 -58.181 -31.9346
LeftForeArm  0.00573856 -20.1439 -4.65517
LeftHand  0.237102 8.93934 8.8434
RightShoulder  0.38479 11.728 -6.59778
RightArm  -62.051 80.8084 14.6064
RightForeArm  16.1686 1.34618 -9.24766
RightHand  -0.039238 -6.99636 0.0636677
LeftUpLeg  -55.2307 3.93168 13.2952
LeftLeg  39.6405 9.5118 8.7364
LeftFoot  -3.97227 0.0683076 -0.689421
LeftToes  9.43379e-011 5.24309e-011 -4.66411e-011
770
root  -8.30934 34.7246 21.0505 16.6764 -1.07525 -1.24194
RightUpLeg  -31.4729 -7.96699 -17.8704
RightLeg  44.1183 4.6261 4.49859
RightFoot  -25.9927 2.61946 21.527
RightToes  -5.28216e-011 1.2921e-014 -6.02303e-014
Spine  23.7839 2.57969 7.41423
Spine1  -1.35813 6.62435 -11.9389
HEad  -18.9677 7.81924 -13.4888
LeftShoulder1  0.922656 -12.736 2.80938
LeftArm  -30.2561 -52.2145 -34.0616
LeftForeArm  11.4737 -27.7969 -5.3804
LeftHand  0.483567 9.63563 13.8935
RightShoulder  0.389992 11.8591 -6.58269
RightArm  -51.427 81.8037 25.3227
RightForeArm  17.1996 4.87693 -6.82969
RightHand  -0.00435207 -7.35298 -1.9733
LeftUpLeg  -56.1581 3.52004 15.1195
LeftLeg  43.6386 7.94055 8.4428
LeftFoot  -1.19846 0.241242 -2.63754
LeftToes  9.43379e-011 5.24309e-011 -4.66411e-011
771
root  -7.37554 34.135 21.8884 16.0254 -1.32903 -3.27365
RightUpLeg  -29.7827 -8.09001 -17.9202
RightLeg  45.1508 5.82937 5.94818
RightFoot  -27.2761 3.03286 22.7306
RightToes  -5.28216e-011 1.2921e-014 -6.02303e-014
Spine  22.4298 2.76582 8.9587
Spine1  -0.245847 7.08626 -12.4046
HEad  -17.7431 12.2205 -15.2956
LeftShoulder1  1.44054 -10.7309 -2.33299
LeftArm  -25.8144 -43.5667 -33.4898
LeftForeArm  19.0316 -40.5576 -8.35472
LeftHand  0.543832 9.78511 14.9509
RightShoulder  0.522242 12.0166 -5.62105
RightArm  -33.4344 80.8502 43.7489
RightForeArm  18.1985 9.68772 -3.74901
RightHand  0.0131952 -7.22139 -3.09498
LeftUpLeg  -56.7467 4.54741 16.3531
LeftLeg  48.3906 6.00549 7.64432
LeftFoot  -1.93596 0.852119 -10.1986
LeftToes  9.43379e-011 5.24309e-011 -4.66411e-011
772
root  -6.32263 33.8365 22.7889 14.8316 -1.22453 -4.33231
RightUpLeg  -26.7838 -6.93659 -19.4155
RightLeg  44.988 6.47775 6.59803
RightFoot  -26.8755 3.32572 25.3496
RightToes  -5.28216e-011 1.2921e-014 -6.02303e-014
Spine  22.1226 3.04779 9.22146
Spine1  0.0651697 7.3872 -12.6563
HEad  -17.9358 17.018 -16.6209
LeftShoulder1  1.6917 -8.76715 -6.57507
LeftArm  -24.6826 -33.1208 -31.724
LeftForeArm  29.0662 -52.7899 -12.4494
LeftHand  0.619833 10.1975 15.4828
RightShoulder  0.840996 11.449 -2.99798
RightArm  -22.2147 77.6663 56.7474
RightForeArm  20.8106 15.8416 0.667999
RightHand  0.0148008 -7.02361 -3.48066
LeftUpLeg  -56.8543 5.30138 15.1998
LeftLeg  53.6287 4.50145 7.03989
LeftFoot  -6.34816 0.478552 -10.0856
LeftToes  9.43379e-011 5.24309e-011 -4.66411e-011
773
root  -5.17815 33.9465 23.7695 13.3774 -0.82891 -3.97565
RightUpLeg  -23.901 -4.55634 -22.3291
RightLeg  45.2601 6.13408 6.29715
RightFoot  -23.2979 3.05553 30.0497
RightToes  -5.28216e-011 1.2921e-014 -6.02303e-014
Spine  22.0273 3.4553 8.68461
Spine1  0.425874 7.77495 -13.3618
HEad  -17.8634 21.0153 -17.8246
LeftShoulder1  1.75394 -6.79965 -10.3212
LeftArm  -25.6228 -23.2955 -28.1512
LeftForeArm  39.0111 -60.0485 -15.935
LeftHand  0.837838 11.473 16.3641
RightShoulder  1.33674 11.3457 0.914446
RightArm  -14.5292 71.9147 60.1408
RightForeArm  18.8538 23.4817 4.03679
RightHand  0.0157425 -7.12822 -3.37678
LeftUpLeg  -55.0293 5.2295 12.2594
LeftLeg  56.0055 3.78854 6.56603
LeftFoot  -9.52185 0.192424 -8.51953
LeftToes  9.43379e-011 5.24309e-011 -4.66411e-011
774
root  -3.84231 34.4499 24.819 12.0667 -0.0930406 -5.10974
RightUpLeg  -22.7433 -1.06518 -22.3841
RightLeg  46.9462 1.97616 1.94881
RightFoot  -14.784 0.8656 31.4259
RightToes  -5.28216e-011 1.2921e-014 -6.02303e-014
Spine  20.9804 3.9298 10.4551
Spine1  1.41949 8.47575 -13.0195
HEad  -16.252 24.6182 -19.5276
LeftShoulder1  1.45084 -3.99995 -13.0933
LeftArm  -27.5528 -13.8331 -25.8346
LeftForeArm  40.9678 -62.4646 -17.669
LeftHand  0.797003 11.2036 16.3085
RightShoulder  1.82407 11.1948 4.83952
RightArm  -5.98344 65.5276 59.3082
RightForeArm  14.0325 29.5889 5.6625
RightHand  0.0205697 -7.48365 -3.18171
LeftUpLeg  -51.9234 4.60553 10.8305
LeftLeg  56.2969 3.75367 6.58293
LeftFoot  -12.0232 0.0317105 -6.75953
LeftToes  9.43379e-011 5.24309e-011 -4.66411e-011
775
root  -2.35406 35.4353 25.9507 10.9024 1.07946 -6.30402
RightUpLeg  -23.8483 1.95606 -19.3639
RightLeg  51.1771 -5.82631 -8.06956
RightFoot  -3.44974 -0.784429 10.9986
RightToes  -5.28216e-011 1.2921e-014 -6.02303e-014
Spine  19.3155 5.0746 12.1671
Spine1  2.11187 9.07209 -9.27723
HEad  -13.0257 27.2625 -20.132
LeftShoulder1  1.17697 -1.98816 -15.6934
LeftArm  -28.7144 -5.77214 -22.1165
LeftForeArm  34.0585 -61.9222 -17.982
LeftHand  0.662545 10.5021 15.5344
RightShoulder  1.8815 9.72838 6.92715
RightArm  -0.0516029 57.9469 59.6941
RightForeArm  11.9417 33.3488 6.72377
RightHand  0.0203924 -7.52138 -3.12954
LeftUpLeg  -47.1443 2.71759 9.48836
LeftLeg  53.423 4.70912 7.27528
LeftFoot  -12.8384 0.0151403 -4.72595
LeftToes  9.43379e-011 5.24309e-011 -4.66411e-011
776
root  -1.26517 36.2708 26.8228 9.89848 3.69308 -6.03592
RightUpLeg  -23.9959 4.04088 -16.5852
RightLeg  52.7505 -6.2644 -9.13891
RightFoot  -6.88131 -0.285283 6.11676
RightToes  -5.28216e-011 1.2921e-014 -6.02303e-014
Spine  17.6192 5.02671 12.5633
Spine1  3.17876 9.03496 -9.32712
HEad  -10.4363 29.0964 -19.009
LeftShoulder1  0.826517 -0.395483 -15.7938
LeftArm  -29.4684 0.418502 -18.0625
LeftForeArm  29.2123 -58.5119 -15.8311
LeftHand  0.494205 9.5991 14.2801
RightShoulder  1.94471 8.76728 8.80063
RightArm  2.64415 49.4308 61.1475
RightForeArm  10.1945 35.216 7.33136
RightHand  0.0149469 -7.2984 -3.09945
LeftUpLeg  -43.4034 -0.640656 7.58879
LeftLeg  50.341 5.6073 7.66664
LeftFoot  -11.5819 0.0609977 -4.00626
LeftToes  9.43379e-011 5.24309e-011 -4.66411e-011
777
root  -0.289378 37.2077 27.5135 9.41833 7.04641 -4.99387
RightUpLeg  -24.7237 4.7201 -13.9006
RightLeg  49.9878 -2.01141 -2.91895
RightFoot  -11.714 -0.057577 6.76603
RightToes  -5.28216e-011 1.2921e-014 -6.02303e-014
Spine  16.8436 4.73669 11.8313
Spine1  3.32711 8.60091 -9.16077
HEad  -8.84434 29.9696 -19.2019
LeftShoulder1  0.645443 0.430789 -15.9215
LeftArm  -30.4372 5.02127 -14.6876
LeftForeArm  24.5985 -54.3725 -13.6767
LeftHand  0.4075 9.14321 13.3695
RightShoulder  1.96368 7.76661 10.6118
RightArm  5.57137 42.0287 63.0786
RightForeArm  6.17262 33.5488 7.11336
RightHand  0.0107861 -7.23682 -2.93521
LeftUpLeg  -40.3616 -2.34714 4.62645
LeftLeg  46.4342 5.00465 6.04622
LeftFoot  -7.85848 0.139041 -3.02206
LeftToes  9.43379e-011 5.24309e-011 -4.66411e-011
778
root  0.640979 38.202 28.0844 9.78746 11.3848 -3.46631
RightUpLeg  -25.9656 3.86311 -11.3432
RightLeg  43.4623 1.20629 0.929891
RightFoot  -14.521 0.183486 10.1458
RightToes  -5.28216e-011 1.2921e-014 -6.02303e-014
Spine  16.175 4.35925 11.1605
Spine1  3.09618 8.05141 -8.66271
HEad  -6.84603 29.4683 -19.4317
LeftShoulder1  0.525636 0.954623 -15.8184
LeftArm  -32.7658 6.882 -13.849
LeftForeArm  21.72 -50.2874 -11.8502
LeftHand  0.311514 8.39462 12.9571
RightShoulder  2.0098 7.25867 12.0421
RightArm  6.81618 35.3047 64.1004
RightForeArm  3.40908 30.0512 6.36695
RightHand  0.00208504 -6.66312 -3.17805
LeftUpLeg  -38.504 -0.0729619 0.567616
LeftLeg  42.4129 0.396631 0.801437
LeftFoot  -1.42488 0.137068 -1.48132
LeftToes  9.43379e-011 5.24309e-011 -4.66411e-011
779
root  1.57352 39.0479 28.6155 10.9486 17.1051 -1.46622
RightUpLeg  -26.9718 1.04289 -9.55667
RightLeg  34.0828 1.76831 1.04107
RightFoot  -16.878 0.591085 14.5321
RightToes  -5.28216e-011 1.2921e-014 -6.02303e-014
Spine  15.2467 3.8736 11.4752
Spine1  3.01437 7.44236 -8.18058
HEad  -4.79332 27.2467 -19.7353
LeftShoulder1  0.420259 1.42839 -15.8508
LeftArm  -34.7778 5.0862 -14.2565
LeftForeArm  22.5893 -46.991 -10.3783
LeftHand  0.253773 7.94992 12.5696
RightShoulder  2.1499 6.8868 14.3278
RightArm  6.72291 29.445 63.3603
RightForeArm  1.94703 26.8005 5.66582
RightHand  -0.0190133 -5.67977 -3.44555
LeftUpLeg  -37.6443 5.01933 -3.60975
LeftLeg  39.7844 -9.56707 -8.06309
LeftFoot  5.51102 0.668755 -4.73993
LeftToes  9.43379e-011 5.24309e-011 -4.66411e-011
780
root  2.52269 39.3675 29.1684 11.6356 23.21 0.0304871
RightUpLeg  -28.095 -1.22507 -8.68229
RightLeg  25.9513 1.58818 0.618042
RightFoot  -18.0926 0.764325 14.9714
RightToes  -5.28216e-011 1.2921e-014 -6.02303e-014
Spine  14.7248 3.57964 13.249
Spine1  2.9106 6.94913 -7.64728
HEad  -2.9424 24.2039 -20.4112
LeftShoulder1  0.449604 1.29075 -15.7708
LeftArm  -35.5028 2.18327 -13.8905
LeftForeArm  22.7187 -45.566 -9.8212
LeftHand  0.163538 7.32346 11.2453
RightShoulder  2.26616 6.6238 16.2252
RightArm  4.77176 24.1603 62.8848
RightForeArm  0.891474 23.6838 5.02069
RightHand  -0.0363589 -4.9756 -3.42293
LeftUpLeg  -36.6183 7.88238 -3.70113
LeftLeg  40.217 -18.2799 -15.5397
LeftFoot  1.89794 3.9577 -33.3139
LeftToes  9.43379e-011 5.24309e-011 -4.66411e-011
781
root  3.36767 39.1876 29.7498 11.7954 29.194 2.11981
RightUpLeg  -28.7704 -0.802068 -10.5112
RightLeg  20.7612 1.3393 0.348259
RightFoot  -20.1818 1.1363 16.3788
RightToes  -5.28216e-011 1.2921e-014 -6.02303e-014
Spine  14.854 3.27801 12.8637
Spine1  2.75956 6.53418 -7.18646
HEad  -1.35656 21.247 -20.3762
LeftShoulder1  0.503631 0.943371 -14.6829
LeftArm  -34.9713 -0.0930248 -12.2456
LeftForeArm  21.6342 -46.1423 -10.1176
LeftHand  0.0774951 6.66325 9.28068
RightShoulder  2.40613 6.49394 18.1114
RightArm  3.32907 20.5096 62.6758
RightForeArm  1.09762 20.5942 5.65273
RightHand  -0.053853 -4.50901 -4.31843
LeftUpLeg  -36.7272 7.28043 -1.91604
LeftLeg  44.8944 -20.3865 -20.0684
LeftFoot  -5.11506 1.74059 -30.7477
LeftToes  9.43379e-011 5.24309e-011 -4.66411e-011
